<?xml version="1.0" encoding="utf-8"?>
<!-- Generator: Adobe Illustrator 24.3.0, SVG Export Plug-In . SVG Version: 6.00 Build 0)  -->
<svg version="1.1" id="Calque_1" xmlns="http://www.w3.org/2000/svg" xmlns:xlink="http://www.w3.org/1999/xlink" x="0px" y="0px"
	 viewBox="0 0 432 432" style="enable-background:new 0 0 432 432;" xml:space="preserve">
<style type="text/css">
	.st0{fill:#AABC6F;}
	.st1{fill:#8BB31C;}
	.st2{fill:#538F0B;}
	.st3{fill:#DDB143;}
	.st4{fill:#CCCCCC;}
	.st5{fill:#333333;}
	.st6{fill:#FBB03B;}
	.st7{fill:#D89741;}
	.st8{fill:#B3B3B3;}
	.st9{fill:#736357;}
	.st10{fill:#C7B299;}
	.st11{fill:#D3C6BC;}
	.st12{fill:#998675;}
	.st13{fill:#C69C6D;}
</style>
<g>
	<path class="st7" d="M236.46,307.08c-0.14-0.43-0.27-0.87-0.41-1.3c-0.72-2.23-1.75-4.3-3.45-5.94c-0.7-0.68-1.5-1.31-2.36-1.75
		c-2.95-1.5-6.22-0.51-8.05,2.36c-1.39,2.18-1.55,4.58-1.21,7.06c0.07,0.54,0.16,1.07,0.29,1.88c-0.64-0.25-1.06-0.39-1.46-0.57
		c-2.2-1-4.49-1.37-6.89-1.15c-4.01,0.37-6.26,3.55-5.23,7.44c0.62,2.32,1.96,4.18,3.81,5.66c0.87,0.69,1.84,1.25,2.77,1.86
		c0.34,0.22,0.68,0.44,1,0.64c-0.07,0.19-0.08,0.23-0.1,0.27c-0.02,0.03-0.04,0.09-0.07,0.09c-0.34,0.04-0.68,0.1-1.01,0.1
		c-4.28,0.01-8.56,0-12.85,0c-0.2-0.42-0.35-0.77-0.52-1.11c-1.65-3.23-4.29-5-7.91-5c-3.63,0-6.31,1.74-7.9,5
		c-0.42,0.86-0.84,1.17-1.8,1.17c-19.25-0.01-38.49,0.01-57.74,0.07c-2.07,0.01-3.13-0.53-2.17-3.08c1.14-3,2.21-6.03,3.31-9.05
		c0.3-0.82,0.62-1.65-0.15-2.38c-0.73-0.7-1.51-0.34-2.28-0.04c-12.92,5.06-25.83,10.12-38.75,15.19c-0.4,0.16-0.81,0.31-1.16,0.55
		c-0.9,0.61-0.89,1.74,0.02,2.35c0.31,0.21,0.69,0.35,1.04,0.49c12.95,5.08,25.91,10.16,38.86,15.24c0.04,0.02,0.08,0.03,0.12,0.04
		c0.74,0.3,1.48,0.54,2.16-0.11c0.67-0.64,0.49-1.39,0.21-2.15c-0.91-2.49-1.82-4.99-2.71-7.49c-0.3-0.85-0.55-1.71-0.81-2.57
		c-0.1-0.33-0.16-0.67-0.18-1.01c-0.1-1.48,0.3-1.91,1.81-1.91c7.42-0.01,14.83-0.01,22.25-0.02c11.87-0.02,23.75-0.04,35.62-0.06
		c0.47,0,0.94,0,1.49,0c1.34,4.61,4.26,7.41,9.19,7.19c4.44-0.19,7.07-2.89,8.26-7.22c0.41,0,0.83,0,1.25,0
		c3.81,0,7.63-0.01,11.44-0.01c0.38,0,0.79-0.01,1.14,0.1c0.24,0.08,0.49,0.35,0.56,0.59c0.05,0.15-0.17,0.47-0.35,0.6
		c-0.42,0.29-0.9,0.5-1.34,0.76c-2.19,1.26-4.08,2.83-5.34,5.07c-0.79,1.41-1.26,2.9-1.14,4.54c0.16,2.28,1.51,4.08,3.69,4.77
		c2.97,0.95,5.84,0.43,8.63-0.76c0.41-0.18,0.83-0.33,1.48-0.58c-0.1,0.72-0.16,1.22-0.24,1.71c-0.28,1.62-0.29,3.25,0.13,4.85
		c0.46,1.75,1.33,3.24,2.85,4.3c2.41,1.7,5.26,1.55,7.71-0.44c2.17-1.76,3.45-4.11,4.32-6.72c0.14-0.44,0.28-0.87,0.67-1.37
		c0.13,0.32,0.29,0.62,0.39,0.95c0.58,1.9,1.35,3.73,2.64,5.24c0.8,0.93,1.7,1.84,2.73,2.5c2.81,1.81,6.21,1.12,8.23-1.55
		c1.48-1.94,1.89-4.18,1.69-6.56c-0.08-0.88-0.23-1.75-0.39-2.88c0.52,0.19,0.86,0.28,1.17,0.43c1.93,0.9,3.96,1.41,6.09,1.35
		c0.81-0.02,1.63-0.12,2.41-0.32c2.89-0.74,4.58-3.41,4.07-6.38c-0.47-2.71-1.93-4.84-4.04-6.51c-1.07-0.84-2.29-1.49-3.45-2.22
		c-0.35-0.22-0.72-0.42-1.05-0.62c0.13-0.88,0.68-0.9,1.26-0.9c1.97,0,3.94,0,5.92,0c2.61,0,5.23,0,7.91,0
		c1.57,4.39,4.53,6.98,9.34,6.65c4.09-0.28,6.58-2.76,7.88-6.61c0.39-0.02,0.76-0.05,1.14-0.05c9.56-0.01,19.12,0.01,28.68-0.04
		c1.39-0.01,2.29,0.46,3.09,1.62c3.04,4.41,6.21,8.73,9.26,13.14c0.84,1.22,1.81,1.74,3.31,1.72c13.37-0.22,26.74-0.37,40.12-0.57
		c0.66-0.01,1.36-0.19,1.95-0.48c0.72-0.34,0.87-1.01,0.53-1.75c-0.17-0.39-0.42-0.75-0.65-1.11c-2.43-3.84-4.87-7.67-7.29-11.51
		c-0.41-0.65-0.78-1.33-1.1-2.03c-0.45-1.01-0.32-2,0.28-2.94c0.58-0.9,1.15-1.81,1.72-2.72c2.11-3.33,4.22-6.66,6.33-9.99
		c0.09-0.14,0.19-0.29,0.28-0.43c1.1-1.77,0.45-2.94-1.69-2.98c-4.37-0.08-8.74-0.15-13.11-0.2c-9.13-0.12-18.26-0.19-27.39-0.36
		c-1.51-0.03-2.46,0.49-3.3,1.71c-2.72,3.95-5.54,7.84-8.32,11.75c-0.27,0.38-0.55,0.76-0.85,1.13c-1.03,1.28-2.33,1.94-4.01,1.93
		c-9.43-0.01-18.86,0-28.29,0.01c-0.21,0-0.42-0.03-0.7-0.04c-1.48-4.25-4.39-6.69-9-6.6c-3.76,0.08-6.51,2.39-8.12,6.57
		c-4.77,0-9.58,0-14.4,0c-0.07-0.62,0.43-0.72,0.76-0.94c0.99-0.68,2.05-1.27,2.96-2.03c1.86-1.54,3.2-3.46,3.7-5.86
		c0.78-3.74-1.38-6.67-5.17-7.05c-2.48-0.26-4.87,0.13-7.14,1.19c-0.31,0.14-0.63,0.26-0.95,0.37c-0.07,0.02-0.16-0.04-0.36-0.1
		c0.11-0.85,0.25-1.73,0.34-2.6c0.19-1.78-0.04-3.51-0.8-5.14c-2-4.29-6.65-5.3-10.24-2.23c-2.01,1.72-3.25,3.95-4.07,6.43
		c-0.16,0.48-0.33,0.96-0.49,1.44C236.67,307.06,236.56,307.07,236.46,307.08z"/>
	<path class="st3" d="M170.72,247.29c-0.3-0.25-0.58-0.52-0.9-0.74c-0.92-0.63-1.9-1.17-2.76-1.87c-1.88-1.51-3.24-3.41-3.84-5.79
		c-0.34-1.32-0.3-2.64,0.23-3.91c0.91-2.19,2.69-3.14,4.92-3.38c2.44-0.26,4.78,0.12,7.02,1.14c0.38,0.17,0.76,0.32,1.17,0.49
		c0.39-0.6,0.12-1.1,0.04-1.57c-0.26-1.63-0.34-3.26,0.13-4.84c0.29-0.97,0.71-1.95,1.28-2.78c2.03-2.94,5.63-3.58,8.61-1.62
		c1.35,0.89,2.46,2.03,3.22,3.44c0.69,1.27,1.22,2.63,1.81,3.96c0.17,0.38,0.28,0.77,0.66,1.17c0.12-0.33,0.26-0.66,0.37-1
		c0.76-2.4,1.83-4.63,3.69-6.38c0.68-0.64,1.45-1.23,2.28-1.64c2.84-1.41,5.98-0.53,7.82,2.13c1.33,1.92,1.72,4.08,1.5,6.37
		c-0.08,0.88-0.23,1.75-0.37,2.85c0.59-0.23,0.98-0.36,1.35-0.53c2.19-1.02,4.48-1.41,6.88-1.21c4.26,0.36,6.53,3.72,5.24,7.83
		c-0.65,2.05-1.85,3.77-3.52,5.12c-0.93,0.75-1.97,1.36-2.97,2.03c-0.34,0.23-0.7,0.45-1.11,0.71c0.5,0.57,1.04,0.38,1.51,0.38
		c6.56,0.02,13.12,0.03,19.67,0.04c9.86,0.01,19.72,0.05,29.57,0.01c2.14-0.01,4.27-0.26,6.41-0.41c1.38-0.1,2.3-0.77,2.77-2.1
		c0.48-1.37,1-2.74,1.56-4.08c0.7-1.66,1.57-3.24,2.75-4.62c0.52-0.61,1.11-1.07,1.95-1.09c1.56-0.04,2.65,1.42,2.11,2.89
		c-0.14,0.39-0.39,0.76-0.65,1.1c-1.78,2.27-2.71,4.92-3.59,7.78c0.39,0.14,0.73,0.35,1.07,0.36c1.07,0.03,2.14-0.01,3.21-0.03
		c1.25-0.03,1.91-0.7,2.25-1.89c0.89-3.09,2.48-5.83,4.51-8.3c0.87-1.05,1.88-1.99,2.84-2.97c0.27-0.27,0.59-0.5,0.93-0.69
		c0.97-0.54,2.12-0.33,2.8,0.48c0.63,0.75,0.67,1.91,0.04,2.74c-0.31,0.4-0.71,0.74-1.09,1.08c-2.4,2.22-4.19,4.86-5.39,7.89
		c-0.51,1.29-0.34,1.65,1.05,1.71c2.61,0.13,5.22,0.15,7.83,0.17c0.92,0.01,1.5-0.55,1.82-1.38c0.31-0.8,0.54-1.63,0.89-2.41
		c1.86-4.1,4.77-7.28,8.56-9.68c1.47-0.93,2.22-0.87,3.59,0.25c4.81,3.94,10.14,6.99,15.93,9.27c5.74,2.26,11.69,3.62,17.81,4.25
		c0.51,0.05,1.03,0.13,1.5,0.31c0.87,0.32,1.24,1.02,1.14,1.94c-0.08,0.74-0.56,1.19-1.5,1.32c-1.53,0.2-3.07,0.32-4.59,0.55
		c-11.25,1.69-21.42,5.88-30.29,13.08c-1.36,1.1-2.14,1.18-3.6,0.23c-4.55-2.93-7.87-6.83-9.4-12.11c-0.22-0.77-0.66-1.18-1.38-1.34
		c-0.41-0.1-0.85-0.16-1.27-0.16c-2.36-0.02-4.71-0.02-7.07-0.03c-0.09,0-0.17,0-0.26,0.01c-1.01,0.11-1.2,0.38-0.88,1.34
		c0.7,2.1,1.82,3.98,3.18,5.69c0.8,1,1.75,1.87,2.63,2.81c0.32,0.34,0.68,0.66,0.92,1.06c0.49,0.79,0.37,1.85-0.22,2.52
		c-0.64,0.74-1.66,0.98-2.57,0.54c-0.42-0.2-0.81-0.49-1.15-0.8c-3.33-2.97-5.76-6.55-7.19-10.78c-0.14-0.4-0.26-0.82-0.43-1.21
		c-0.26-0.59-0.71-1.02-1.36-1.05c-1.41-0.06-2.82-0.06-4.23-0.05c-0.18,0-0.36,0.18-0.63,0.32c0.8,2.67,1.72,5.22,3.36,7.46
		c0.25,0.35,0.54,0.67,0.73,1.05c0.5,0.96,0.3,2.02-0.47,2.69c-0.82,0.71-1.94,0.75-2.83,0.03c-0.43-0.35-0.79-0.79-1.12-1.23
		c-1.49-1.97-2.43-4.22-3.27-6.52c-0.22-0.6-0.45-1.2-0.67-1.8c-0.39-1.08-1.15-1.67-2.29-1.78c-1.24-0.12-2.47-0.33-3.71-0.33
		c-17.57-0.05-35.15-0.07-52.72-0.1c-0.58,0-1.33-0.17-1.55,0.55c-0.26,0.83,0.62,0.9,1.09,1.17c2.43,1.36,4.6,2.99,5.95,5.51
		c0.82,1.54,1.36,3.15,1.03,4.93c-0.46,2.45-1.92,3.96-4.36,4.49c-2.74,0.6-5.36,0.13-7.9-0.98c-0.41-0.18-0.83-0.35-1.45-0.61
		c0.06,0.56,0.08,0.88,0.13,1.2c0.35,1.92,0.43,3.83-0.15,5.72c-0.49,1.6-1.34,2.96-2.73,3.94c-2.26,1.61-4.94,1.59-7.3-0.11
		c-2.47-1.78-3.85-4.31-4.79-7.13c-0.14-0.42-0.3-0.83-0.7-1.25c-0.15,0.42-0.3,0.85-0.44,1.27c-0.82,2.53-2.05,4.8-4.08,6.58
		c-1.41,1.24-3.06,1.95-4.94,1.8c-2.15-0.17-3.77-1.33-4.9-3.14c-1.37-2.19-1.49-4.6-1.14-7.08c0.08-0.53,0.35-1.05,0.04-1.71
		c-0.46,0.19-0.88,0.35-1.3,0.53c-2.41,1.05-4.89,1.47-7.52,1.04c-3.91-0.65-5.34-4.06-4.59-7.15c0.57-2.33,1.86-4.25,3.72-5.71
		c1.24-0.97,2.65-1.72,3.99-2.56c0.32-0.2,0.83-0.34,0.6-0.8c-0.13-0.26-0.57-0.41-0.91-0.52c-0.23-0.08-0.51-0.02-0.77-0.02
		c-21.86-0.01-43.72,0-65.58-0.07c-2.15-0.01-3.79,0.69-5.25,2.18c-2.39,2.44-4.35,5.18-6.11,8.08c-0.22,0.37-0.43,0.74-0.65,1.11
		c-0.51,0.88-1.24,1.2-2.27,1.04c-2.71-0.41-5.42-0.82-8.14-1.13c-1.91-0.22-3.84-0.33-5.77-0.38c-3.08-0.08-6.17-0.11-9.26-0.08
		c-3.47,0.03-6.93,0.23-10.34,1.02c-1.64,0.38-2.47-0.77-1.9-2.25c1.48-3.87,3.29-7.53,6.07-10.66c0.79-0.88,0.76-1.17-0.05-2.06
		c-2.9-3.2-4.8-6.97-6.21-11c-0.46-1.31,0.36-2.29,1.73-2.01c8.16,1.65,16.39,1.12,24.6,0.68c2.94-0.15,5.86-0.71,8.78-1.16
		c1.48-0.23,2.01-0.08,2.77,1.22c1.55,2.68,3.25,5.25,5.32,7.55c0.74,0.83,1.56,1.59,2.37,2.35c1.08,1.01,2.33,1.44,3.85,1.44
		c18.99-0.02,37.97,0,56.96,0.01c2.96,0,5.91,0.01,8.87,0.01c0.41,0,0.82-0.04,1.23-0.06C170.64,247.46,170.68,247.38,170.72,247.29
		z"/>
	<path class="st1" d="M166.04,108.09c-1.31-0.42-11.04-0.47-12.16-0.19c0.11,1.67,0.24,3.33,0.32,4.99
		c0.02,0.42-0.05,0.86-0.17,1.26c-0.31,0.98-1.18,1.58-2.13,1.54c-0.95-0.04-1.82-0.69-2.04-1.67c-0.14-0.62-0.12-1.27-0.18-1.91
		c-0.11-1.11-0.21-2.21-0.35-3.32c-0.04-0.33-0.19-0.64-0.33-1.08c-0.44,0-0.86,0-1.28,0c-7.16-0.01-14.32,0-21.47-0.04
		c-0.94-0.01-1.57,0.28-2.23,0.96c-2.14,2.22-4.29,4.44-6.58,6.5c-2.23,2-4.89,3.28-7.88,3.81c-7.32,1.31-14-3.38-15.27-10.73
		c-0.02-0.12-0.07-0.25-0.12-0.42c-0.14-0.05-0.29-0.15-0.45-0.15c-1.8-0.02-3.6-0.02-5.4-0.02c-1.03,0-1.84,0.35-2.56,1.18
		c-2,2.29-4.11,4.49-6.14,6.76c-0.89,1.01-1.93,1.45-3.27,1.43c-6.39-0.09-12.77-0.14-19.16-0.19c-0.79-0.01-1.55-0.07-2.15-0.65
		c-0.88-0.85-1.06-2.18-0.35-3.29c0.48-0.76,1.06-1.45,1.63-2.15c1.12-1.36,2.24-2.71,3.4-4.02c0.51-0.58,0.57-1.12,0.14-1.73
		c-0.35-0.49-0.71-0.97-1.08-1.43c-1.33-1.63-2.68-3.23-3.99-4.87c-0.31-0.39-0.56-0.87-0.7-1.35c-0.39-1.33,0.5-2.76,1.86-3.02
		c0.46-0.09,0.94-0.07,1.41-0.08c6.21-0.06,12.43-0.08,18.64-0.18c1.45-0.02,2.53,0.45,3.49,1.54c2.07,2.35,4.24,4.6,6.31,6.95
		c0.69,0.79,1.45,1.09,2.47,1.06c2.01-0.05,4.02-0.01,6.09-0.01c0.16-0.55,0.3-1.03,0.45-1.51c1.13-3.56,3.2-6.43,6.41-8.39
		c3.19-1.95,6.47-2.02,9.79-0.34c0.3,0.15,0.61,0.33,0.86,0.55c0.8,0.69,1,1.79,0.52,2.68c-0.48,0.91-1.48,1.36-2.5,1.08
		c-0.49-0.13-0.96-0.37-1.43-0.56c-1.61-0.66-3.18-0.58-4.69,0.29c-2.34,1.35-3.75,3.41-4.71,6.04c0.46,0.07,0.78,0.16,1.09,0.16
		c7.2,0.02,14.4,0.02,21.6,0.05c0.66,0,1.11-0.24,1.56-0.69c1.49-1.47,2.98-2.96,4.57-4.33c2.13-1.84,4.52-3.25,7.31-3.87
		c6.49-1.45,13.08,1.48,16.36,7.41c0.66,1.19,1.35,1.58,2.67,1.54c3.17-0.1,6.34-0.02,9.51-0.02c0.41,0,0.83-0.04,1.22-0.06
		c0.25-0.71-0.18-0.94-0.58-1.19c-0.94-0.6-1.92-1.15-2.78-1.84c-2.11-1.67-3.61-3.77-4.1-6.48c-0.58-3.2,1.25-5.92,4.44-6.58
		c2.7-0.56,5.28-0.09,7.77,0.99c0.35,0.15,0.7,0.31,1.06,0.45c0.06,0.03,0.16-0.03,0.38-0.07c-0.03-0.3-0.03-0.62-0.09-0.93
		c-0.35-1.92-0.44-3.83,0.14-5.72c0.49-1.6,1.33-2.96,2.71-3.95c2.28-1.64,5.02-1.6,7.41,0.15c2.41,1.78,3.78,4.27,4.69,7.05
		c0.14,0.43,0.3,0.85,0.45,1.27c0.09,0.01,0.19,0.01,0.28,0.02c0.14-0.42,0.28-0.84,0.42-1.27c0.69-2.14,1.68-4.12,3.24-5.78
		c0.15-0.16,0.3-0.31,0.45-0.46c4.3-4.14,9.76-1.98,11.19,3.2c0.45,1.64,0.43,3.3,0.14,4.97c-0.08,0.48-0.14,0.97-0.24,1.7
		c0.67-0.28,1.09-0.45,1.51-0.63c2.41-1.04,4.89-1.48,7.52-1.05c3.92,0.65,5.35,4.05,4.61,7.14c-0.57,2.37-1.91,4.3-3.81,5.81
		c-0.97,0.77-2.06,1.39-3.1,2.06c-0.39,0.25-0.89,0.41-0.64,1.14c4.32,0,8.67,0,13.12,0c0.08-0.25,0.17-0.57,0.29-0.88
		c0.43-1.12,0.78-2.28,1.33-3.33c3.43-6.61,9.93-7.52,14.83-5.81c2.37,0.83,4.55,2.03,6.46,3.64c2.23,1.87,4.4,3.82,6.55,5.79
		c0.55,0.5,1.08,0.72,1.82,0.72c9.77-0.02,19.54,0,29.32,0c0.34,0,0.68-0.03,1.09-0.05c0.97-3.21,0.92-6.35-0.41-9.42
		c-0.92-2.14-2.33-3.93-4.32-5.14c-2.89-1.76-5.89-1.99-8.87-0.16c-2.44,1.5-3.5,4.01-2.95,6.82c0.33,1.69-0.24,2.85-1.58,3.17
		c-1.3,0.32-2.34-0.51-2.8-2.16c-1.3-4.65,1.28-9.13,4.47-11.34c4.21-2.91,9.84-3,14.16-0.09c4.61,3.1,7.04,7.52,7.36,13.04
		c0.1,1.73-0.14,3.48-0.22,5.29c0.32,0.02,0.69,0.05,1.07,0.05c5.7,0.01,11.4,0.02,17.1,0.02c1.69,0,1.88-0.24,1.33-1.89
		c-0.47-1.42-1.04-2.81-1.52-4.23c-0.16-0.48-0.29-1-0.27-1.5c0.08-1.52,1.47-2.47,2.91-1.99c0.85,0.28,1.66,0.69,2.48,1.05
		c5.99,2.66,11.97,5.33,17.96,7.98c0.8,0.35,1.54,0.74,1.89,1.63c0.46,1.17,0.14,2.35-0.9,3.05c-0.32,0.21-0.68,0.36-1.03,0.52
		c-6.45,2.88-12.9,5.75-19.36,8.63c-0.27,0.12-0.56,0.22-0.83,0.35c-1.72,0.8-3.45-0.84-3.11-2.62c0.08-0.42,0.25-0.82,0.38-1.22
		c0.49-1.46,1.01-2.91,1.48-4.38c0.25-0.78,0.05-1.1-0.75-1.25c-0.29-0.05-0.6-0.04-0.9-0.04c-6.13,0-12.26,0.01-18.39-0.03
		c-0.84-0.01-1.27,0.24-1.68,1.01c-2.46,4.67-6.16,7.85-11.34,9.13c-3.61,0.89-7.15,0.46-10.62-0.71c-2.41-0.81-4.69-1.93-6.73-3.42
		c-2.38-1.74-4.68-3.6-7.01-5.43c-0.41-0.32-0.78-0.59-1.35-0.59c-7.54,0.02-15.09,0-22.63,0c-0.17,0-0.33,0.04-0.57,0.07
		c-0.28,1.47,0.05,2.89,0.25,4.31c0.07,0.47,0.22,0.92,0.28,1.38c0.18,1.29-0.53,2.36-1.71,2.63c-1.09,0.25-2.24-0.37-2.56-1.61
		c-0.36-1.4-0.55-2.85-0.76-4.29c-0.11-0.79-0.1-1.61-0.15-2.46c-4.5,0-8.89,0-13.26,0c-0.36,0.7,0.13,0.88,0.54,1.12
		c1.09,0.67,2.21,1.31,3.25,2.06c1.6,1.15,2.75,2.69,3.57,4.47c0.49,1.07,0.75,2.18,0.71,3.36c-0.09,2.95-2.08,5.05-5.16,5.41
		c-2.53,0.3-4.95-0.09-7.27-1.15c-0.31-0.14-0.63-0.27-0.95-0.38c-0.06-0.02-0.16,0.04-0.39,0.1c0.06,0.47,0.12,0.96,0.2,1.45
		c0.26,1.58,0.35,3.18-0.13,4.71c-0.33,1.05-0.77,2.11-1.41,2.99c-2,2.76-5.46,3.41-8.31,1.54c-1.02-0.67-1.91-1.59-2.71-2.52
		c-1.21-1.42-1.94-3.12-2.5-4.89c-0.12-0.4-0.27-0.79-0.66-1.23c-0.13,0.36-0.28,0.72-0.4,1.08c-0.81,2.53-2,4.82-3.99,6.64
		c-1.11,1.01-2.37,1.71-3.86,1.9c-2.57,0.34-4.51-0.77-5.95-2.8c-1.32-1.87-1.67-4.01-1.46-6.25c0.08-0.88,0.23-1.75,0.38-2.88
		c-0.56,0.21-0.95,0.33-1.31,0.49c-2.23,1.04-4.56,1.45-7,1.22c-4.21-0.4-6.44-3.71-5.18-7.77c0.65-2.1,1.87-3.87,3.6-5.21
		c1.18-0.91,2.5-1.64,3.76-2.45C165.17,108.68,165.49,108.45,166.04,108.09z M280.96,107.95c-2.23-0.26-23.43-0.18-24.42,0.09
		c2.92,2.28,5.94,4.25,9.5,5.25c2.13,0.6,4.27,0.87,6.46,0.46C276.12,113.06,278.82,111.08,280.96,107.95z M98.67,107.65
		c0.3,0.9,0.46,1.52,0.71,2.1c1.93,4.52,7.39,5.64,10.86,4.44c3.45-1.19,5.87-3.7,8.26-6.36
		C111.95,107.66,105.43,107.65,98.67,107.65z M244.73,103.65c-2.78-2.55-5.43-4.8-8.86-5.92c-1.47-0.48-2.93-0.53-4.43-0.18
		c-2.63,0.61-5.12,3.4-5.38,6.11C232.18,103.65,238.29,103.65,244.73,103.65z M129.29,103.53c5.94,0,11.8,0,17.79,0
		c-0.24-0.36-0.38-0.61-0.57-0.84C142.08,97.28,133.7,97.64,129.29,103.53z"/>
	<path class="st2" d="M358.61,182.22c0.45-0.05,0.9-0.15,1.35-0.15c1.33-0.02,2.66,0.04,3.99-0.02c1.01-0.05,1.82,0.28,2.57,0.93
		c2.4,2.08,4.81,4.13,7.22,6.19c0.36,0.31,0.71,0.63,1.11,0.87c0.93,0.58,2.03,0.42,2.68-0.35c0.67-0.79,0.65-1.85-0.11-2.69
		c-0.37-0.41-0.81-0.76-1.23-1.12c-1.53-1.32-3.06-2.62-4.59-3.94c-0.26-0.22-0.53-0.44-0.77-0.68c-0.99-0.98-1.01-1.5,0.05-2.44
		c1.76-1.57,3.57-3.08,5.35-4.62c0.36-0.31,0.73-0.6,1.05-0.94c0.89-0.92,0.96-2.04,0.21-2.88c-0.73-0.82-1.88-0.88-2.9-0.14
		c-0.38,0.28-0.73,0.6-1.09,0.9c-2.38,2.04-4.76,4.06-7.12,6.12c-0.59,0.51-1.19,0.75-1.97,0.72c-1.46-0.05-2.91,0.01-4.37-0.02
		c-0.44-0.01-0.87-0.14-1.6-0.27c0.47-0.56,0.73-0.93,1.05-1.22c1.5-1.41,3.03-2.79,4.53-4.2c0.34-0.32,0.68-0.67,0.91-1.06
		c0.46-0.77,0.3-1.75-0.31-2.37c-0.61-0.62-1.44-0.79-2.24-0.38c-0.45,0.23-0.85,0.57-1.23,0.91c-2.75,2.52-5.51,5.03-8.22,7.59
		c-0.77,0.73-1.58,1.07-2.64,1.03c-1.76-0.06-3.51,0-5.27-0.03c-0.29-0.01-0.58-0.23-0.86-0.36c0.13-0.25,0.21-0.56,0.4-0.75
		c1.56-1.53,3.15-3.03,4.72-4.55c0.34-0.33,0.68-0.66,0.94-1.05c0.54-0.81,0.43-1.82-0.2-2.49c-0.64-0.67-1.64-0.82-2.47-0.31
		c-0.4,0.24-0.75,0.57-1.09,0.89c-2.64,2.52-5.27,5.03-7.89,7.57c-0.72,0.7-1.51,1.07-2.52,1.07c-7.89-0.01-15.77,0-23.66,0
		c-0.21,0-0.42-0.02-0.66-0.04c-0.21-0.27-0.41-0.55-0.62-0.81c-2.11-2.61-5.99-2.66-8.03-0.02c-0.56,0.72-1.11,0.9-1.93,0.89
		c-2.61-0.03-5.23-0.02-7.84-0.03c-0.08,0-0.17-0.04-0.33-0.07c-1.32-3.06-3.61-4.97-7.06-4.96c-3.41,0.01-5.67,1.89-6.98,5.06
		c-0.39,0-0.77,0-1.15,0c-5.57,0.01-11.14,0.01-16.72,0.01c-0.43,0-0.87,0.02-1.28-0.07c-0.58-0.13-0.72-0.66-0.28-1.06
		c0.31-0.28,0.71-0.47,1.08-0.69c2.11-1.23,3.95-2.74,5.14-4.91c0.39-0.71,0.73-1.46,0.95-2.24c1.11-3.95-1.13-7.18-5.2-7.55
		c-2.4-0.22-4.7,0.15-6.89,1.16c-0.38,0.17-0.76,0.32-1.17,0.49c-0.39-0.6-0.12-1.09-0.04-1.57c0.26-1.63,0.34-3.26-0.13-4.84
		c-0.29-0.97-0.7-1.95-1.28-2.78c-2.03-2.94-5.63-3.59-8.61-1.63c-1.35,0.89-2.46,2.03-3.23,3.44c-0.69,1.27-1.22,2.63-1.81,3.96
		c-0.17,0.37-0.28,0.77-0.66,1.17c-0.12-0.33-0.26-0.66-0.37-1c-0.76-2.4-1.83-4.63-3.68-6.38c-0.68-0.64-1.45-1.23-2.28-1.64
		c-2.8-1.39-5.88-0.56-7.74,2.02c-1.4,1.94-1.79,4.14-1.57,6.47c0.08,0.88,0.23,1.75,0.37,2.86c-0.59-0.23-0.98-0.36-1.35-0.53
		c-2.19-1.02-4.48-1.41-6.88-1.21c-4.26,0.36-6.54,3.72-5.24,7.83c0.66,2.1,1.89,3.85,3.62,5.2c1.04,0.81,2.2,1.47,3.32,2.19
		c0.34,0.22,0.73,0.46,0.53,0.89c-0.11,0.23-0.52,0.46-0.79,0.46c-5.44,0.01-10.88,0-16.33-0.02c-0.04,0-0.08-0.03-0.19-0.08
		c-0.14-0.24-0.3-0.53-0.47-0.82c-2.9-4.97-9.81-4.96-12.65,0.06c-0.4,0.7-0.81,0.95-1.59,0.94c-2.49-0.04-4.97-0.03-7.46,0.01
		c-0.66,0.01-1.07-0.18-1.48-0.75c-2.21-3.05-6.32-3.06-8.46,0.01c-0.51,0.73-1.06,0.73-1.75,0.73
		c-13.16,0.01-26.32,0.03-39.48,0.05c-4.54,0.01-9.09,0.01-13.63,0c-0.57,0-1.34,0.22-1.58-0.5c-0.27-0.8,0.5-1.08,1.04-1.4
		c1.33-0.78,2.68-1.53,4.01-2.31c0.4-0.24,0.81-0.5,1.13-0.83c0.64-0.67,0.7-1.62,0.23-2.37c-0.47-0.76-1.34-1.11-2.22-0.85
		c-0.41,0.12-0.8,0.31-1.17,0.52c-4.31,2.46-8.63,4.92-12.93,7.42c-0.57,0.33-1.12,0.81-1.5,1.35c-0.78,1.1-0.52,2.24,0.57,3.02
		c0.21,0.15,0.44,0.26,0.67,0.39c4.59,2.5,9.17,5,13.77,7.5c0.37,0.2,0.77,0.39,1.18,0.48c0.97,0.21,1.84-0.23,2.25-1.07
		c0.38-0.79,0.21-1.71-0.49-2.34c-0.31-0.28-0.69-0.5-1.07-0.71c-1.46-0.81-2.93-1.6-4.4-2.4c-0.26-0.14-0.57-0.25-0.76-0.46
		c-0.21-0.23-0.48-0.58-0.43-0.82c0.05-0.22,0.47-0.41,0.76-0.5c0.27-0.09,0.59-0.03,0.89-0.03c17.66-0.02,35.32-0.03,52.98-0.08
		c0.96,0,1.51,0.28,2.07,1.08c2.03,2.9,6.33,2.84,8.3-0.11c0.5-0.76,1.01-1,1.86-0.99c2.18,0.04,4.37,0.01,6.56,0
		c0.42,0,0.84,0,1.3,0c1.18,3.56,3.5,5.74,7.26,5.7c3.7-0.04,5.99-2.18,7.08-5.68c5.88,0,11.68,0,17.47,0
		c0.23,0.61-0.23,0.7-0.54,0.9c-1.12,0.71-2.31,1.33-3.35,2.15c-2.12,1.66-3.61,3.76-4.1,6.47c-0.57,3.15,1.21,5.86,4.32,6.55
		c2.74,0.6,5.36,0.14,7.9-0.96c0.35-0.15,0.7-0.31,1.06-0.45c0.06-0.02,0.16,0.03,0.38,0.08c-0.03,0.29-0.04,0.61-0.09,0.92
		c-0.35,1.92-0.44,3.83,0.14,5.72c0.49,1.6,1.33,2.96,2.71,3.95c2.26,1.62,4.94,1.61,7.3-0.08c2.4-1.72,3.78-4.15,4.71-6.88
		c0.17-0.51,0.36-1.01,0.54-1.51c0.09-0.01,0.18-0.01,0.28-0.02c0.14,0.42,0.28,0.84,0.42,1.27c0.81,2.53,2.05,4.8,4.07,6.59
		c1.41,1.24,3.05,1.96,4.93,1.82c2.15-0.16,3.77-1.31,4.91-3.12c1.38-2.19,1.51-4.59,1.15-7.07c-0.08-0.53-0.16-1.06-0.28-1.83
		c0.68,0.28,1.1,0.44,1.52,0.62c2.41,1.05,4.89,1.48,7.52,1.05c4.01-0.65,5.39-4.19,4.59-7.25c-0.61-2.32-1.9-4.23-3.78-5.68
		c-1.18-0.91-2.51-1.63-3.77-2.43c-0.27-0.17-0.54-0.36-0.79-0.53c0.06-0.14,0.07-0.18,0.09-0.22c0.02-0.04,0.04-0.09,0.07-0.1
		c0.21-0.02,0.43-0.05,0.64-0.05c6.47,0,12.94,0,19.39,0c1.31,3.38,3.58,5.44,7.25,5.43c3.62-0.01,5.86-2.05,7.07-5.39
		c2.97,0,5.91,0,8.95,0c0.95,2.04,2.51,3.44,4.9,3.46c2.4,0.02,4.02-1.27,5-3.47c0.37-0.02,0.75-0.05,1.13-0.05
		c7.29-0.01,14.57,0.02,21.86-0.04c1.66-0.01,2.95,0.47,4.13,1.66c2.38,2.41,4.87,4.71,7.32,7.04c0.34,0.32,0.69,0.65,1.09,0.89
		c0.83,0.5,1.85,0.34,2.47-0.32c0.63-0.66,0.73-1.68,0.19-2.49c-0.26-0.39-0.6-0.72-0.94-1.05c-1.45-1.4-2.91-2.79-4.36-4.19
		c-0.3-0.29-0.59-0.6-1.05-1.07c0.48-0.18,0.8-0.41,1.13-0.41c2.01-0.03,4.03-0.03,6.04-0.01c0.79,0.01,1.33,0.53,1.87,1.03
		c2.68,2.47,5.35,4.94,8.04,7.41c0.35,0.32,0.69,0.65,1.08,0.91c0.94,0.63,1.98,0.51,2.68-0.27c0.67-0.75,0.67-1.84-0.02-2.7
		c-0.24-0.3-0.53-0.56-0.82-0.82c-1.48-1.37-2.97-2.73-4.44-4.1c-0.33-0.31-0.62-0.67-0.92-1.01
		C358.53,182.45,358.57,182.33,358.61,182.22z"/>
</g>
</svg>
